<mxfile host="app.diagrams.net" modified="2024-04-09T13:53:09.169Z" agent="Mozilla/5.0 (Windows NT 10.0; Win64; x64) AppleWebKit/537.36 (KHTML, like Gecko) Chrome/123.0.0.0 Safari/537.36" version="24.2.2" etag="zgEhogGG-yj7FlA7FQbY" type="github">
  <diagram name="PÃ¡gina-1" id="DLDvNDs-lVxgfE3R2tk9">
    <mxGraphModel>
      <root>
        <mxCell id="0" />
        <mxCell id="1" parent="0" />
      </root>
    </mxGraphModel>
  </diagram>
</mxfile>
